<svg width="16" height="23" viewBox="0 0 16 23" fill="none" xmlns="http://www.w3.org/2000/svg">
<path d="M11.502 19C10.8404 20.5823 9.58232 21.8405 8 22.502C6.41768 21.8405 5.15956 20.5823 4.498 19H6.758C7.084 19.489 7.505 19.912 8 20.243C8.495 19.913 8.916 19.489 9.243 19H11.502ZM14 13.805L16 16.073V18H0V16.073L2 13.805V8.00002C2 4.51702 4.504 1.55302 8 0.455017C11.496 1.55302 14 4.51702 14 8.00002V13.805ZM13.27 16L12 14.56V8.00002C12 5.68202 10.43 3.57002 8 2.58002C5.57 3.57002 4 5.68102 4 8.00002V14.56L2.73 16H13.27ZM8 10C7.46957 10 6.96086 9.7893 6.58579 9.41423C6.21071 9.03916 6 8.53045 6 8.00002C6 7.46958 6.21071 6.96088 6.58579 6.5858C6.96086 6.21073 7.46957 6.00002 8 6.00002C8.53043 6.00002 9.03914 6.21073 9.41421 6.5858C9.78929 6.96088 10 7.46958 10 8.00002C10 8.53045 9.78929 9.03916 9.41421 9.41423C9.03914 9.7893 8.53043 10 8 10Z" fill="#042330"/>
</svg>
